<svg xmlns="http://www.w3.org/2000/svg" width="400" height="463.095" viewBox="0 0 400 NaN" fill-rule="evenodd" xmlns:v="https://vecta.io/nano"><path d="M207.44 42.272c-4.992.14-10.282.388-11.755.552L184.97 43.87c-10.452.973-13.75 1.349-14.57 1.66-.368.14-2.196.476-4.062.746s-4.397.734-5.625 1.03-3.437.709-4.9.92-4.018.746-5.655 1.192-3.713.972-4.613 1.169-3.408.89-5.573 1.538l-5.357 1.582c-2.293.652-11.216 3.765-11.54 4.026-.163.132-1.168.51-2.232.84s-2.872 1.057-4.018 1.617-2.552 1.198-3.125 1.417-1.175.494-1.34.611-.766.31-1.34.428-1.377.513-1.786.878-1.413.903-2.232 1.195-1.823.743-2.232 1.002c-1.222.773-4.805 2.696-6.4 3.433-2.444 1.132-9.027 5.215-12.053 7.476-1.556 1.162-3.563 2.577-4.462 3.143s-2.305 1.607-3.125 2.312c-2.14 1.841-2.52 2.15-5.58 4.55-1.516 1.189-4.173 3.611-5.905 5.382s-3.302 3.221-3.49 3.221-.533.368-.767.819-1.075 1.504-1.868 2.343c-1.6 1.693-3.564 3.956-4.62 5.32l-1.137 1.471c-.246.318-.8.949-1.23 1.402s-1.82 2.403-3.086 4.333l-2.858 4.253c-.895 1.196-4.135 6.96-4.135 7.355 0 .199-.268.505-.596.68s-.595.468-.595.651-.355 1.081-.79 1.998-.893 1.935-1.018 2.262-.767 1.734-1.424 3.125c-1.347 2.853-4.805 13.109-4.805 14.251 0 .411-.326 1.223-.725 1.804-.467.68-.798 1.696-.927 2.844-.11.982-.266 2.053-.344 2.381s-.244 1.131-.367 1.785-.374 1.727-.558 2.381c-.296 1.057-.703 3.874-1.548 10.715-.78 6.317-.614 23.397.287 29.464l.607 4.315a74.68 74.68 0 0 0 .79 4.614c.246 1.145.632 3.649.857 5.564s.627 3.903.893 4.417.67 1.828.9 2.918.6 2.651.823 3.47l1.06 4.017c.36 1.392.852 3.133 1.092 3.87s.436 1.514.435 1.727.286 1.017.637 1.786 1.277 3.205 2.058 5.415c1.385 3.924 1.98 5.478 2.793 7.292.582 1.299.93 2.195 1.507 3.869.282.818 1.152 2.827 1.933 4.464l2.48 5.275c.582 1.264 1.4 2.802 1.818 3.417s.76 1.335.76 1.599.255.71.566.992.647.943.746 1.47.73 1.689 1.403 2.584 1.516 2.23 1.874 2.967 1.3 2.343 2.094 3.571l2.787 4.316c2.343 3.636 2.682 4.124 4.286 6.171 2.42 3.088 3.506 4.58 3.506 4.819 0 .119.502.709 1.116 1.31s1.48 1.628 1.925 2.283 1.45 1.865 2.232 2.689 2.716 2.968 4.296 4.762c4.997 5.676 17.336 17.118 19.875 18.431.486.252.99.634 1.122.851s.974.935 1.875 1.597 1.892 1.489 2.204 1.839.73.634.93.634.516.183.7.406c.54.653 7.88 5.583 10.353 6.954 1.248.692 2.488 1.457 2.756 1.7s.952.652 1.52.91 1.7.883 2.52 1.391c3.428 2.125 19.442 9.831 21.726 10.455.327.089 1.466.495 2.53.902l3.957 1.511c1.112.424 2.25.776 2.53.782s1.043.268 1.697.585 1.392.579 1.638.585 1.787.484 3.423 1.064a50.11 50.11 0 0 0 6.1 1.649c1.72.326 3.527.73 4.018.897 1.38.469 7.81 1.788 9.97 2.046l5.506.71c6.11.82 15.9 1.319 20.982 1.069 5.148-.252 11.52-.81 12.203-1.068.245-.093 1.437-.285 2.647-.426 2.398-.28 11.552-3.256 12.875-4.185.434-.306.98-.556 1.21-.556s1.14-.535 2.017-1.19 1.7-1.191 1.83-1.191c1.843 0 7.696-7.963 10.4-14.136 2.248-5.152 2.153-18.726-.186-26.532-.4-1.333-.726-2.602-.726-2.821s-.254-1.07-.564-1.892-.717-2.163-.904-2.982-.66-2.157-1.055-2.976-.8-1.823-.907-2.232c-.185-.714-1.885-4.699-2.666-6.25-.206-.409-.536-1.246-.734-1.86s-.466-1.116-.597-1.116-.416-.435-.632-.967-.77-1.61-1.227-2.394-.833-1.642-.833-1.904-.45-1.161-.998-1.996-1.614-2.676-2.368-4.091-1.677-3.045-2.052-3.623-1.203-1.899-1.84-2.935l-2.307-3.688c-.633-.994-1.15-1.948-1.15-2.122s-.217-.494-.482-.714c-.483-.401-3.008-3.927-4.14-5.784-.333-.546-.835-1.246-1.116-1.556s-.51-.785-.51-1.055-.332-.708-.737-.973c-.63-.413-1.725-1.885-3-4.043-.178-.299-.546-.79-.818-1.09s-.495-.655-.495-.788-.4-.626-.893-1.096-.892-.979-.892-1.134-.61-.944-1.356-1.753-2.052-2.397-2.902-3.527c-8.83-11.736-14.67-12.939-18.785-3.872-1.248 2.749-1.533 5.894-2.55 28.096-.637 13.917-2.65 22.943-6.132 27.518-1.515 1.99-5.18 5.662-6.098 6.11-8.8 4.296-20.004 5.006-27.61 1.75-1.362-.583-2.67-1.06-2.91-1.06-1.472 0-7.522-5.233-9.462-8.184-1.68-2.555-3.445-6.195-3.445-7.103 0-.284-.2-.92-.465-1.415-3.066-5.929-4.214-21.807-2.983-41.252l.484-7.968.58-8.036.595-7.292.61-8.035c.93-11.716.978-26.368.13-41.221-1.307-22.945-1.222-37.664.236-40.466.167-.322.554-1.527.86-2.678.73-2.76.637-2.485 1.418-4.164.74-1.588 2.33-3.733 2.77-3.733.148 0 .94-.732 1.756-1.627.99-1.081 2.195-1.98 3.6-2.683 1.162-.582 2.272-1.19 2.467-1.351.474-.394 3.708-1.465 4.456-1.477.328-.005.948-.193 1.38-.417 1.53-.798 4.61-1.632 7.252-1.962l4.762-.62c6.376-.873 13.21 1.607 18.25 6.622 3.992 3.974 7.138 16.092 7.185 27.682.007 1.751.143 3.827.303 4.613s.43 4.441.602 8.125.447 7.566.612 8.63.42 3.207.57 4.762c.798 8.342 2.933 12.5 6.417 12.5 3.125 0 4.278-.99 19.99-17.187 1.786-1.842 3.4-3.348 3.564-3.348s.692-.57 1.15-1.265 2.05-2.486 3.536-3.979l3.63-3.72c.51-.554 1.36-1.328 1.886-1.72s1.046-.947 1.155-1.232 2.09-2.509 4.405-4.941c3.77-3.961 5.625-5.974 9.036-9.802a44.25 44.25 0 0 1 2.381-2.415c.737-.686 1.606-1.531 1.932-1.879.694-.741 3.07-2.349 4.764-3.227 3.934-2.038 12.664-2.631 16.285-1.107.61.256 1.383.465 1.72.465.93 0 4.182 1.432 5.357 2.36.573.452 1.46 1.039 1.973 1.304s1.013.693 1.112.952.638.662 1.196.895c2.458 1.027 7.638 7.639 8.798 11.23.198.614.467 1.116.596 1.116.217 0 .377.516 1.253 4.045.914 3.686-.424 13.305-2.108 15.143-.304.332-.643 1.03-.753 1.551s-.392 1.106-.627 1.301-.428.506-.43.69c-.002.47-3.676 4.933-4.76 5.78-.492.385-.898.858-.902 1.051s-.538.677-1.185 1.076-1.113.788-1.036.865-1.44 1.692-3.37 3.59-3.602 3.691-3.714 3.986-.82.808-1.573 1.141c-.97.43-1.483.88-1.763 1.551-.43 1.032-.925 1.588-3.635 4.094-.992.917-1.894 1.953-2.004 2.301s-.646.845-1.188 1.103-1.436 1.03-1.984 1.716c-.868 1.088-1.887 2.194-6.38 6.926-.497.523-1.424 1.603-2.06 2.399s-1.67 1.97-2.296 2.61-1.14 1.354-1.14 1.588-.47 1.493-1.04 2.796c-1.51 3.431-1.314 7.605.45 9.632.285.327.686.93.9 1.339.52 1.037 6.25 8.768 6.837 9.226.105.082.407.464.67.85s2.064 2.372 4 4.415 3.656 3.952 3.82 4.243 1.118 1.208 2.12 2.038a79.05 79.05 0 0 1 3.622 3.24c4.774 4.595 6.4 6.096 7.147 6.558.44.276 1.42 1.044 2.174 1.707 1.395 1.225 4.98 4.114 7.407 5.969a24.34 24.34 0 0 0 2.828 1.809c.818.431 1.79 1.061 2.157 1.399 1.206 1.106 7.022 3.244 11.236 4.131 3.562.749 10.566-1.186 13.787-3.809.927-.756 1.882-1.45 2.12-1.541 1.042-.4 6.47-5.686 9.167-8.925.83-.996 1.954-2.261 2.5-2.812.952-.958 1.706-2.119 2.85-4.391.29-.573 1.094-1.79 1.8-2.705s1.265-1.746 1.265-1.845.402-.777.893-1.505.893-1.466.893-1.641.384-.759.854-1.296 1.28-1.823 1.8-2.856 1.407-2.522 1.973-3.309 1.028-1.619 1.028-1.848.316-.882.702-1.452.807-1.372.934-1.781c.356-1.143 2.253-5.153 2.675-5.655.326-.387.997-2.111 1.068-2.744.026-.235.8-2.315 1.797-4.77.346-.86.806-2.166 1.023-2.902a43.36 43.36 0 0 1 .975-2.828c.318-.818.677-2.09.797-2.827s.344-1.58.498-1.874c.49-.934 1.94-6.565 2.62-10.18.387-2.056 1.492-6.95 1.82-8.056.148-.503.27-1.551.27-2.33s.296-3.246.657-5.485c.805-4.981 1.018-30.523.292-35.021l-1.123-7.224c-.406-2.664-.855-5.142-1-5.506s-.633-2.404-1.088-4.532-1.346-5.142-1.98-6.697c-1.208-2.958-1.37-3.493-1.476-4.836-.036-.45-.16-.818-.275-.818s-.298-.398-.405-.883-.518-1.362-.915-1.947c-1.13-1.662-2.212-3.811-2.212-4.385 0-.288-.142-.524-.315-.524s-.247-.109-.164-.244-.108-.636-.425-1.116c-.98-1.483-1.128-1.737-1.564-2.657-1.197-2.527-2.152-4.271-2.854-5.208-1.747-2.335-2.97-4.289-2.83-4.519.083-.134.001-.244-.182-.244s-.25-.134-.15-.297.042-.298-.13-.298-.315-.116-.315-.258-.82-1.113-1.822-2.158-2.4-2.703-3.106-3.685c-1.125-1.564-3.358-3.945-6.998-7.462-.585-.565-1.672-1.413-2.417-1.885s-1.708-1.324-2.143-1.893-1.563-1.448-2.5-1.952-1.97-1.194-2.277-1.532-1.772-1.368-3.258-2.287l-4.34-2.732c-.9-.583-2.653-1.553-3.896-2.157s-2.783-1.429-3.422-1.833-1.498-.84-1.908-.969-1.146-.528-1.637-.886-2.03-1.079-3.422-1.602-2.798-1.105-3.125-1.293a33.55 33.55 0 0 0-1.34-.72c-.727-.369-6.704-2.273-12.053-3.84l-3.997-1.207c-.724-.232-1.672-.423-2.106-.423s-2.233-.406-4-.901-3.966-1.023-4.888-1.171a90.77 90.77 0 0 1-3.909-.753c-1.228-.267-3.37-.6-4.762-.741-2.28-.231-4.157-.464-12.053-1.495-6.593-.86-25.492-1.279-39.733-.881m83.78 346.426c-7.72.803-12.546 4.366-14.3 10.558-.594 2.095-.9 19.265-.42 22.898 1.18 8.774 7 12.817 18.442 12.816 10.353-.001 15.74-3.07 18.024-10.268.757-2.389.996-20.044.322-23.877-1.59-9.053-9.55-13.427-22.066-12.127M30.06 411.756v22.47h13.095l.025-16.22 2.22-3.95.507 1.082 1.522 3.314 2.51 5.381 4.072 8.682.82 1.711h13.645l-.717-1.265c-.395-.695-1.524-2.805-2.51-4.687l-2.9-5.506-7.8-14.89 4.252-6.092 2.374-3.423 1.26-1.786c.13-.163 1.13-1.57 2.227-3.125l2.295-3.186c.78-.925.283-.991-6.88-.911l-7.185.08-1.178 1.934c-.65 1.064-1.433 2.403-1.743 2.976s-.9 1.578-1.308 2.232-.836 1.392-.95 1.637-.717 1.286-1.342 2.312-1.135 1.921-1.135 1.989-.435.824-.967 1.68l-.967 1.557-.08-8.233-.08-8.233H30.06v22.47m48.214-22.139c0 .189.132.828.293 1.42s1.04 4.96 1.953 9.707l5.627 28.72a144.48 144.48 0 0 1 .452 2.604l.36 2.158h5.607c6.245 0 5.7.2 6.08-2.232.102-.655.443-2.597.758-4.315l.706-4.018c.176-1.17 1.288-7.433 1.824-10.268l.556-3.125c.688-4.548.813-4.541 1.65.092l.95 4.967c.272 1.206 2.772 15.307 3.127 17.634l.192 1.265h11.21l.29-1.116c.158-.614.5-2.321.76-3.795s.667-3.549.906-4.613 1.712-8.497 3.275-16.517l3.122-15.774c.153-.655.362-1.629.464-2.165l.186-.974-11.175.163-.378 2.38c-.208 1.31-1.054 7.27-1.88 13.245-1.422 10.274-1.99 13.572-2.062 12.001-.017-.357-.3-1.964-.607-3.572-.888-4.507-.9-4.568-1.24-6.937-.175-1.225-.362-2.296-.413-2.381s-.38-1.827-.73-3.873l-1.056-5.804-.595-3.125c-.38-2.26.01-2.107-5.16-2.016l-4.665.082-.37 1.488c-.203.818-.57 2.76-.816 4.315s-.773 4.502-1.17 6.548l-.9 4.91c-.098.655-.62 3.468-1.158 6.25l-.98 5.06-.347-2.53-.48-3.274c-.073-.409-.214-1.48-.314-2.381s-.6-4.65-1.088-8.333l-1.423-10.714-.19-1.339-5.577-.081c-4.068-.06-5.577.012-5.577.263m65.476 22.139v22.47h13.095v-44.94H143.75v22.47m31.25 0v22.47h13.095l.025-16.22 2.22-3.95.507 1.082 1.52 3.314 2.51 5.381 4.072 8.682.82 1.711h13.646l-.718-1.265c-.395-.695-1.524-2.805-2.508-4.687l-2.9-5.506-7.8-14.89 4.25-6.092 2.375-3.423 1.258-1.786c.13-.163 1.132-1.57 2.227-3.125l2.296-3.186c.78-.925.282-.991-6.88-.911l-7.184.08-1.18 1.934a89.27 89.27 0 0 0-1.742 2.976c-.31.573-.9 1.578-1.308 2.232s-.836 1.392-.95 1.637-.717 1.286-1.34 2.312-1.135 1.921-1.135 1.989-.436.824-.968 1.68l-.967 1.557-.158-16.466H175v22.47m51.263.034l.076 22.585h7.887c18.785 0 23.73-1.739 25.812-9.077 2.067-7.286-.853-12.735-8.058-15.038l-2.037-.651 1.407-.355c10.956-2.758 9.847-16.629-1.512-18.921l-2.368-.471c-.818-.161-5.942-.375-11.386-.475l-9.897-.182.076 22.585m101.983-21.835c.14.369 1.185 2.612 2.32 4.985l7.528 16.181c0 .379-.574 1.78-2.153 5.248l-1.643 3.72-1.502 3.423c-.258.573-.488 1.109-.5 1.19-.048.171-1.077 2.46-2.945 6.548-.7 1.555-1.254 2.894-1.21 2.976s2.843.082 6.216 0l6.132-.149 1.95-4.762 2.708-6.845c.416-1.146.85-2.183.963-2.306s1.522 2.991 3.13 6.92l2.923 7.142h12.394l-.427-.818c-.235-.45-.428-.915-.43-1.033s-.324-.922-.72-1.786c-.725-1.589-2.698-6.127-5.147-11.839-.737-1.719-1.46-3.252-1.607-3.408a1.12 1.12 0 0 1-.267-.661c0-.209-.35-1.119-.778-2.023-.77-1.626-.773-1.656-.25-2.761l5.848-12.278 2.46-5.059c.538-1.064 1.07-2.236 1.185-2.605l.206-.669h-6.1c-5.856 0-6.11.024-6.29.6-.105.33-1.334 2.975-2.73 5.878l-2.83 6.022-.287.744-.407-.744c-.224-.41-1.58-3.389-3.012-6.622l-2.606-5.878H327.99l.255.669m-83.12 6.561c1.784.93 2.445 4.493 1.383 7.455-.682 1.903-2.082 2.739-5.067 3.025l-2.157.207v-11.337l1.413-.091c1.803-.115 3.25.127 4.428.741m53.273.273c2.023 1.376 2.036 1.463 2.136 14.319.098 12.778-.045 14.118-1.67 15.548-2.677 2.359-7.535 1.478-8.943-1.621-.767-1.687-.733-23.957.04-25.957 1.26-3.267 5.364-4.38 8.437-2.289m-54.02 17.044c2.585 1.136 3.596 3.23 3.514 7.276-.1 4.914-1.81 6.541-6.896 6.562l-1.71.008V413.01l2.043.19c1.123.104 2.496.389 3.05.633" fill="#dcdcdc"/><path d="M257.813 44.55a2.44 2.44 0 0 0 1.041 0c.287-.074.052-.136-.52-.136s-.807.062-.52.136M69.178 89.658l-.874.967.967-.874c.532-.481.967-.916.967-.967 0-.23-.245-.028-1.06.874m-12.4 13.244c-.525.61-.918 1.265-.76 1.265.06 0 .407-.402.77-.893.718-.97.71-1.212-.01-.372m178.63 42.485c-.723.737-1.248 1.339-1.166 1.339s.74-.602 1.463-1.339 1.248-1.339 1.166-1.339-.74.602-1.463 1.339m-102.89 17.857c.002.819.06 1.118.128.666s.067-1.122-.004-1.488-.127.004-.124.822m77.128 8.854l-.874.967.967-.874c.532-.48.967-.916.967-.967 0-.23-.245-.027-1.06.874m43.452 32.441l-.874.967.967-.874c.532-.481.968-.916.968-.967 0-.23-.246-.028-1.06.874m70.985 55.208l-1.026 1.116 1.117-1.026c1.038-.954 1.252-1.206 1.025-1.206-.05 0-.552.502-1.116 1.116M91.964 315.923c.556.573 1.077 1.041 1.16 1.041s-.306-.468-.86-1.041-1.077-1.042-1.16-1.042.306.469.86 1.042" fill="#e9d4be"/><path d="M165.253 107.943c.286.075.755.075 1.042 0s.052-.136-.52-.136-.807.061-.52.136" fill="#dcdcd4"/><path d="M239.8 407.056c.37.071.906.068 1.2-.006s-.018-.133-.673-.13-.887.065-.517.136" fill="#dce0dc"/></svg>